<svg width="20" height="20" viewBox="0 0 20 20" fill="none" xmlns="http://www.w3.org/2000/svg">
<g clip-path="url(#clip0_221_4985)">
<rect width="20" height="20" fill="white"/>
<path d="M5.79162 7.21074C4.90667 8.22053 4.37867 9.49353 4.28912 10.8332H5.83329V11.6666H4.29079C4.3813 13.0069 4.91148 14.2799 5.79912 15.2882L6.87412 14.2132L7.46329 14.8032C6.01663 16.2499 6.36079 15.8991 5.80246 16.4807C5.10273 15.8647 4.53353 15.1148 4.12848 14.2751C3.72344 13.4355 3.49075 12.5232 3.44417 11.5921C3.39758 10.6611 3.53805 9.7301 3.85727 8.85422C4.17649 7.97834 4.66798 7.17531 5.30273 6.49256C5.93748 5.80981 6.70262 5.26117 7.55294 4.87906C8.40326 4.49694 9.32154 4.2891 10.2535 4.2678C11.1855 4.2465 12.1123 4.41218 12.9792 4.75505C13.8461 5.09792 14.6355 5.61102 15.3008 6.26407L14.7091 6.85574C13.665 5.83452 12.2905 5.21982 10.8333 5.1224V6.66657H9.99996V5.12157C8.662 5.21131 7.39064 5.73836 6.38162 6.62157L7.47746 7.71657L6.88829 8.30574L5.79162 7.21074ZM16.7583 8.3424L16.125 8.97574C16.5472 10.0236 16.6694 11.1683 16.4779 12.2817C16.2865 13.3952 15.7888 14.4333 15.0408 15.2799L13.9583 14.1999L13.3691 14.7891L15.03 16.4816C16.1574 15.493 16.9348 14.1663 17.2462 12.6995C17.5575 11.2327 17.3861 9.70456 16.7575 8.34324L16.7583 8.3424ZM2.49996 11.2499C2.49885 9.69036 2.95879 8.16529 3.82194 6.86639C4.68509 5.56749 5.91295 4.55273 7.35117 3.94965C8.78939 3.34658 10.3738 3.18211 11.9052 3.47692C13.4366 3.77173 14.8468 4.51265 15.9583 5.60657L16.5508 5.0149C15.7211 4.19337 14.7352 3.54633 13.6514 3.11196C12.5676 2.67759 11.4077 2.46469 10.2403 2.48581C9.07288 2.50692 7.9215 2.76164 6.8541 3.23492C5.7867 3.70821 4.8249 4.39048 4.02543 5.24148C3.22597 6.09248 2.60504 7.09498 2.19928 8.18983C1.79351 9.28468 1.61113 10.4497 1.66289 11.6162C1.71466 12.7827 1.99951 13.927 2.50066 14.9816C3.00181 16.0362 3.70909 16.9797 4.58079 17.7566L5.15912 17.1524C4.32371 16.4125 3.65474 15.5039 3.19636 14.4864C2.73798 13.469 2.50062 12.3658 2.49996 11.2499ZM17.4558 7.6449C18.2601 9.20187 18.5216 10.9828 18.1988 12.7052C17.8761 14.4277 16.9875 15.9931 15.6741 17.1532L16.2525 17.7566C17.728 16.4391 18.7122 14.6595 19.0438 12.7094C19.3754 10.7592 19.0347 8.75433 18.0775 7.02324L17.4558 7.6449ZM18.7708 3.97324L19.36 4.5624L12.1533 11.7699C12.4391 12.2017 12.5543 12.7243 12.4766 13.2363C12.399 13.7483 12.1339 14.2131 11.7329 14.5408C11.3319 14.8684 10.8235 15.0354 10.3063 15.0094C9.78912 14.9835 9.30002 14.7663 8.93385 14.4002C8.56768 14.034 8.35056 13.5449 8.32458 13.0277C8.2986 12.5105 8.46562 12.0021 8.79325 11.6011C9.12088 11.2001 9.58576 10.9351 10.0977 10.8574C10.6097 10.7797 11.1323 10.8949 11.5641 11.1807L18.7708 3.97324ZM11.6666 12.9166C11.6666 12.6693 11.5933 12.4277 11.456 12.2221C11.3186 12.0165 11.1234 11.8563 10.895 11.7617C10.6666 11.6671 10.4152 11.6424 10.1728 11.6906C9.93029 11.7388 9.70756 11.8579 9.53274 12.0327C9.35793 12.2075 9.23887 12.4302 9.19064 12.6727C9.14241 12.9152 9.16717 13.1665 9.26178 13.3949C9.35639 13.6233 9.5166 13.8186 9.72216 13.9559C9.92772 14.0933 10.1694 14.1666 10.4166 14.1666C10.748 14.1661 11.0657 14.0343 11.3 13.8C11.5343 13.5656 11.6662 13.248 11.6666 12.9166Z" fill="black"/>
</g>
<defs>
<clipPath id="clip0_221_4985">
<rect width="20" height="20" fill="white"/>
</clipPath>
</defs>
</svg>
