<svg width="17" height="15" viewBox="0 0 17 15" fill="none" xmlns="http://www.w3.org/2000/svg">
<path d="M0 1.66667C0 1.22464 0.175595 0.800716 0.488155 0.488155C0.800716 0.175595 1.22464 0 1.66667 0H15C15.442 0 15.8659 0.175595 16.1785 0.488155C16.4911 0.800716 16.6667 1.22464 16.6667 1.66667V10.8333C16.6667 11.2754 16.4911 11.6993 16.1785 12.0118C15.8659 12.3244 15.442 12.5 15 12.5H11.1783L8.9225 14.7558C8.76623 14.9121 8.5543 14.9998 8.33333 14.9998C8.11236 14.9998 7.90044 14.9121 7.74417 14.7558L5.48833 12.5H1.66667C1.22464 12.5 0.800716 12.3244 0.488155 12.0118C0.175595 11.6993 0 11.2754 0 10.8333V1.66667ZM15 1.66667H1.66667V10.8333H5.83333C6.05433 10.8334 6.26626 10.9212 6.4225 11.0775L8.33333 12.9883L10.2442 11.0775C10.4004 10.9212 10.6123 10.8334 10.8333 10.8333H15V1.66667ZM3.33333 4.58333C3.33333 4.36232 3.42113 4.15036 3.57741 3.99408C3.73369 3.8378 3.94565 3.75 4.16667 3.75H12.5C12.721 3.75 12.933 3.8378 13.0893 3.99408C13.2455 4.15036 13.3333 4.36232 13.3333 4.58333C13.3333 4.80435 13.2455 5.01631 13.0893 5.17259C12.933 5.32887 12.721 5.41667 12.5 5.41667H4.16667C3.94565 5.41667 3.73369 5.32887 3.57741 5.17259C3.42113 5.01631 3.33333 4.80435 3.33333 4.58333ZM3.33333 7.91667C3.33333 7.69565 3.42113 7.48369 3.57741 7.32741C3.73369 7.17113 3.94565 7.08333 4.16667 7.08333H9.16667C9.38768 7.08333 9.59964 7.17113 9.75592 7.32741C9.9122 7.48369 10 7.69565 10 7.91667C10 8.13768 9.9122 8.34964 9.75592 8.50592C9.59964 8.6622 9.38768 8.75 9.16667 8.75H4.16667C3.94565 8.75 3.73369 8.6622 3.57741 8.50592C3.42113 8.34964 3.33333 8.13768 3.33333 7.91667Z" fill="black"/>
</svg>
