<svg width="21" height="20" viewBox="0 0 21 20" fill="none" xmlns="http://www.w3.org/2000/svg">
<path d="M12.2149 7.37037C12.0994 7.04574 11.8865 6.76471 11.6052 6.56576C11.3239 6.3668 10.988 6.25964 10.6434 6.25894H9.35345C8.98542 6.25701 8.62975 6.39162 8.35522 6.63673C8.08068 6.88184 7.90679 7.22004 7.86716 7.58593C7.82753 7.95183 7.92499 8.31942 8.14068 8.61762C8.35637 8.91582 8.67497 9.12346 9.03487 9.20037L10.9992 9.62894C11.4008 9.71687 11.7558 9.95012 11.9959 10.2839C12.236 10.6176 12.3444 11.0284 12.3001 11.4371C12.2558 11.8459 12.062 12.2239 11.7559 12.4984C11.4499 12.773 11.0532 12.9248 10.642 12.9247H9.53202C8.8063 12.9247 8.18916 12.4618 7.96059 11.8147M10.0877 6.25894V4.5918M10.0877 14.5918V12.9261M3.13916 19.0732V15.5018H6.71059" stroke="black" stroke-linecap="round" stroke-linejoin="round"/>
<path d="M19.4106 8.0806C19.7899 10.1023 19.4871 12.1928 18.5498 14.0238C17.6125 15.8548 16.0937 17.3228 14.2319 18.1973C12.3701 19.0719 10.2705 19.3034 8.26286 18.8557C6.25519 18.4079 4.45301 17.3062 3.1392 15.7235M1.1592 11.4977C0.779949 9.47601 1.08274 7.38557 2.02004 5.55454C2.95734 3.7235 4.4761 2.25552 6.33794 1.38099C8.19978 0.50647 10.2993 0.274911 12.307 0.722662C14.3146 1.17041 16.1168 2.27213 17.4306 3.85488" stroke="black" stroke-linecap="round" stroke-linejoin="round"/>
<path d="M17.4306 0.505859V4.07729H13.8591" stroke="black" stroke-linecap="round" stroke-linejoin="round"/>
</svg>
