<svg width="22" height="22" viewBox="0 0 22 22" fill="none" xmlns="http://www.w3.org/2000/svg">
<path d="M20.75 10.75C20.75 5.227 16.273 0.75 10.75 0.75C5.227 0.75 0.75 5.227 0.75 10.75C0.75 16.273 5.227 20.75 10.75 20.75" stroke="black" stroke-width="1.5" stroke-linecap="round" stroke-linejoin="round"/>
<path d="M11.7499 0.799805C11.7499 0.799805 14.7499 4.7498 14.7499 10.7498M9.74988 20.6998C9.74988 20.6998 6.74988 16.7498 6.74988 10.7498C6.74988 4.7498 9.74988 0.799805 9.74988 0.799805M1.37988 14.2498H10.7499M1.37988 7.2498H20.1199" stroke="black" stroke-width="1.5" stroke-linecap="round" stroke-linejoin="round"/>
<path d="M20.629 16.6667C21.123 16.9707 21.092 17.7097 20.584 17.7677L18.017 18.0587L16.866 20.3707C16.638 20.8297 15.933 20.6047 15.816 20.0367L14.561 13.9207C14.462 13.4407 14.894 13.1387 15.311 13.3957L20.629 16.6667Z" stroke="black" stroke-width="1.5"/>
</svg>
