<svg width="24" height="20" viewBox="0 0 24 20" fill="none" xmlns="http://www.w3.org/2000/svg">
<path d="M15.5 9.875C14.6968 9.875 13.9203 9.51641 13.3125 8.86563C12.7214 8.23086 12.3605 7.38438 12.2968 6.48281C12.2289 5.52109 12.5222 4.63672 13.1226 3.99219C13.723 3.34766 14.5625 3 15.5 3C16.4308 3 17.2726 3.35391 17.871 3.99687C18.4753 4.64609 18.7695 5.52891 18.7015 6.48242C18.6363 7.38516 18.2757 8.23125 17.6859 8.86523C17.0796 9.51641 16.3035 9.875 15.5 9.875ZM20.6496 16.75H10.3507C10.1852 16.7509 10.0216 16.7138 9.87259 16.6415C9.72361 16.5693 9.59318 16.4638 9.49136 16.3332C9.38335 16.1916 9.30877 16.0275 9.27319 15.853C9.2376 15.6786 9.24195 15.4983 9.28589 15.3258C9.6148 14.0051 10.4296 12.9098 11.6421 12.1586C12.7183 11.4922 14.0882 11.125 15.5 11.125C16.9394 11.125 18.2734 11.4766 19.3558 12.1426C20.571 12.8898 21.3871 13.9914 21.7144 15.3281C21.7578 15.5008 21.7617 15.681 21.7257 15.8554C21.6897 16.0298 21.6148 16.1938 21.5066 16.3352C21.4049 16.4651 21.2748 16.5701 21.1262 16.642C20.9776 16.7139 20.8146 16.7508 20.6496 16.75ZM8.11714 10.0312C6.74253 10.0312 5.53394 8.75313 5.42183 7.18242C5.36636 6.37773 5.61714 5.63359 6.12496 5.08789C6.6273 4.54766 7.33589 4.25 8.11714 4.25C8.89839 4.25 9.60152 4.54922 10.1066 5.09258C10.6183 5.64258 10.8683 6.38516 10.8097 7.1832C10.6976 8.75352 9.48941 10.0312 8.11714 10.0312ZM10.682 11.2598C9.99488 10.9238 9.10308 10.7559 8.11753 10.7559C6.96675 10.7559 5.84917 11.0559 4.97027 11.6004C3.97378 12.2188 3.30347 13.1191 3.03277 14.2063C2.99315 14.3626 2.98941 14.5259 3.02181 14.6839C3.05421 14.8419 3.12192 14.9906 3.21988 15.1187C3.31283 15.2381 3.4319 15.3345 3.56795 15.4006C3.704 15.4667 3.85339 15.5007 4.00464 15.5H8.34058C8.41376 15.5 8.48462 15.4743 8.5408 15.4274C8.59698 15.3805 8.63492 15.3154 8.648 15.2434C8.6523 15.2188 8.65777 15.1941 8.66402 15.1699C8.99527 13.8395 9.77144 12.7152 10.9183 11.8957C10.9605 11.8653 10.9944 11.8248 11.017 11.778C11.0396 11.7312 11.0502 11.6795 11.0477 11.6275C11.0453 11.5756 11.0299 11.5251 11.003 11.4806C10.9761 11.4361 10.9386 11.399 10.8937 11.3727C10.8324 11.3367 10.7621 11.2988 10.682 11.2598Z" fill="black"/>
</svg>
