<svg width="19" height="19" viewBox="0 0 19 19" fill="none" xmlns="http://www.w3.org/2000/svg">
<path d="M4.86865 6.69797C6.4858 5.26083 7.48865 4.77511 9.42865 4.41797C11.3687 4.77654 12.3715 5.26083 13.9887 6.69797L9.42865 8.97797L4.86865 6.69797Z" stroke="black" stroke-linecap="round" stroke-linejoin="round"/>
<path d="M9.42861 8.96584V14.2958M4.86861 6.69727C4.30718 8.24012 4.30147 10.0801 4.74718 11.6301C4.82218 11.8842 4.97143 12.1101 5.17575 12.2787C6.58718 13.4558 7.5529 13.8887 9.12718 14.233C9.32585 14.2759 9.53138 14.2759 9.73004 14.233C11.3043 13.8887 12.27 13.4558 13.68 12.2787C13.8849 12.1103 14.0347 11.8844 14.11 11.6301C14.5558 10.0801 14.55 8.24012 13.9886 6.69727L9.42861 8.97727L4.86861 6.69727Z" stroke="black" stroke-linecap="round" stroke-linejoin="round"/>
<path d="M0.500001 9.43203C0.499233 7.44433 1.16175 5.51321 2.3826 3.94463C3.60345 2.37604 5.31281 1.25968 7.23985 0.772428C9.1669 0.285172 11.2014 0.454879 13.0211 1.25466C14.8408 2.05445 16.3416 3.43857 17.2857 5.18774C17.3943 3.61346 17.3614 2.71346 17.1429 1.0806M18.3571 9.43203C18.3578 11.4156 17.6979 13.3428 16.4816 14.9097C15.2653 16.4766 13.5619 17.5938 11.6402 18.0852C9.71845 18.5765 7.68783 18.4139 5.86877 17.6231C4.0497 16.8322 2.54576 15.4582 1.59429 13.7177C1.48571 15.292 1.51714 16.192 1.73714 17.8249" stroke="black" stroke-linecap="round" stroke-linejoin="round"/>
</svg>
